<?xml version="1.0" encoding="utf-8"?>
<!-- Generator: Adobe Illustrator 17.0.0, SVG Export Plug-In . SVG Version: 6.00 Build 0)  -->
<!DOCTYPE svg PUBLIC "-//W3C//DTD SVG 1.1//EN" "http://www.w3.org/Graphics/SVG/1.1/DTD/svg11.dtd">
<svg version="1.1" id="Layer_1" xmlns="http://www.w3.org/2000/svg" xmlns:xlink="http://www.w3.org/1999/xlink" x="0px" y="0px"
	 width="109.5px" height="110px" viewBox="0 0 109.5 110" enable-background="new 0 0 109.5 110" xml:space="preserve">
<g id="XMLID_1_">
	<g>
		<path d="M54.79,2.29c29.11,0,52.71,23.6,52.71,52.71s-23.6,52.71-52.71,52.71S2.08,84.11,2.08,55S25.68,2.29,54.79,2.29z
			 M103.25,55c0-26.72-21.74-48.46-48.46-48.46S6.33,28.28,6.33,55s21.74,48.46,48.46,48.46S103.25,81.72,103.25,55z"/>
	</g>
</g>
<path d="M78.853,84.563c-1.407,0-2.815-0.537-3.889-1.611L26.838,34.827c-2.148-2.148-2.148-5.63,0-7.778
	c2.148-2.147,5.63-2.147,7.778,0l48.125,48.125c2.148,2.147,2.148,5.63,0,7.777C81.668,84.025,80.26,84.563,78.853,84.563z"/>
<path d="M30.728,84.563c-1.408,0-2.815-0.537-3.889-1.611c-2.148-2.147-2.148-5.63,0-7.777l48.125-48.125
	c2.146-2.147,5.631-2.147,7.777,0c2.148,2.148,2.148,5.63,0,7.778L34.617,82.951C33.542,84.025,32.135,84.563,30.728,84.563z"/>
</svg>
