<?xml version="1.0" encoding="utf-8"?>
<!-- Generator: Adobe Illustrator 17.0.0, SVG Export Plug-In . SVG Version: 6.00 Build 0)  -->
<!DOCTYPE svg PUBLIC "-//W3C//DTD SVG 1.1//EN" "http://www.w3.org/Graphics/SVG/1.1/DTD/svg11.dtd">
<svg version="1.1" id="Layer_1" xmlns="http://www.w3.org/2000/svg" xmlns:xlink="http://www.w3.org/1999/xlink" x="0px" y="0px"
	 width="109.5px" height="110px" viewBox="0 0 109.5 110" enable-background="new 0 0 109.5 110" xml:space="preserve">
<g id="XMLID_1_">
	<g>
		<path d="M55.25,2.41c29.2,0,52.88,23.67,52.88,52.87s-23.68,52.88-52.88,52.88c-10.14,0-19.61-2.86-27.66-7.81l-22.46,2.9
			l2.32-25.34C4.2,71.05,2.37,63.38,2.37,55.28C2.37,26.08,26.05,2.41,55.25,2.41z M103.87,55.28c0-26.81-21.81-48.62-48.62-48.62
			S6.63,28.47,6.63,55.28c0,7.28,1.57,14.28,4.66,20.81l0.5,1.05L9.84,98.35l18.7-2.41l1.28,0.79c7.63,4.69,16.42,7.17,25.43,7.17
			C82.06,103.9,103.87,82.09,103.87,55.28z"/>
	</g>
	<g>
		<path fill="none" d="M27.59,100.35c8.05,4.95,17.52,7.81,27.66,7.81c29.2,0,52.88-23.68,52.88-52.88S84.45,2.41,55.25,2.41
			S2.37,26.08,2.37,55.28c0,8.1,1.83,15.77,5.08,22.63l-2.32,25.34L27.59,100.35z"/>
		<path fill="none" d="M55.25,103.9c-9.01,0-17.8-2.48-25.43-7.17l-1.28-0.79l-18.7,2.41l1.95-21.21l-0.5-1.05
			C8.2,69.56,6.63,62.56,6.63,55.28c0-26.81,21.81-48.62,48.62-48.62s48.62,21.81,48.62,48.62S82.06,103.9,55.25,103.9z"/>
	</g>
</g>
<circle cx="31.333" cy="54.917" r="7.25"/>
<circle cx="55.25" cy="54.917" r="7.25"/>
<circle cx="80.583" cy="54.917" r="7.25"/>
</svg>
