<?xml version="1.0" encoding="utf-8"?>
<!-- Generator: Adobe Illustrator 17.0.0, SVG Export Plug-In . SVG Version: 6.00 Build 0)  -->
<!DOCTYPE svg PUBLIC "-//W3C//DTD SVG 1.1//EN" "http://www.w3.org/Graphics/SVG/1.1/DTD/svg11.dtd">
<svg version="1.1" id="Layer_1" xmlns="http://www.w3.org/2000/svg" xmlns:xlink="http://www.w3.org/1999/xlink" x="0px" y="0px"
	 width="109.5px" height="110px" viewBox="0 0 109.5 110" enable-background="new 0 0 109.5 110" xml:space="preserve">
<circle cx="87.085" cy="23.917" r="7.25"/>
<g id="XMLID_2_">
	<g>
		<path d="M107.545,30.89v48.46c0,15.66-12.69,28.35-28.35,28.35h-46.89c-15.66,0-28.35-12.69-28.35-28.35V30.89
			c0-15.66,12.69-28.35,28.35-28.35h46.89C94.855,2.54,107.545,15.23,107.545,30.89z M103.295,79.35V30.89
			c0-13.29-10.81-24.1-24.1-24.1h-46.89c-13.29,0-24.1,10.81-24.1,24.1v48.46c0,13.29,10.81,24.1,24.1,24.1h46.89
			C92.485,103.45,103.295,92.64,103.295,79.35z"/>
	</g>
	<g>
	</g>
</g>
<g id="XMLID_3_">
	<g>
		<path d="M55.755,25.5c16.75,0,30.33,13.58,30.33,30.33c0,16.76-13.58,30.34-30.33,30.34c-16.76,0-30.34-13.58-30.34-30.34
			C25.415,39.08,38.995,25.5,55.755,25.5z M81.835,55.83c0-14.38-11.7-26.08-26.08-26.08c-14.39,0-26.09,11.7-26.09,26.08
			s11.7,26.08,26.09,26.08C70.135,81.91,81.835,70.21,81.835,55.83z"/>
	</g>
	<g>
	</g>
</g>
</svg>
