<?xml version="1.0" encoding="utf-8"?>
<!-- Generator: Adobe Illustrator 17.0.0, SVG Export Plug-In . SVG Version: 6.00 Build 0)  -->
<!DOCTYPE svg PUBLIC "-//W3C//DTD SVG 1.1//EN" "http://www.w3.org/Graphics/SVG/1.1/DTD/svg11.dtd">
<svg version="1.1" id="Layer_1" xmlns="http://www.w3.org/2000/svg" xmlns:xlink="http://www.w3.org/1999/xlink" x="0px" y="0px"
	 width="109.5px" height="99.75px" viewBox="0 4.17 109.5 99.75" enable-background="new 0 4.17 109.5 99.75" xml:space="preserve">
<path d="M53.643,103.15c1.252,0.096,2.518,0.145,3.794,0.145c27.096,0,49.063-21.966,49.063-49.063S84.534,5.17,57.438,5.17
	c-16.62,0-31.31,8.264-40.185,20.907L4.942,16.612l5.343,21.773l22.404-0.818L20.733,28.52C29.128,16.561,42.849,9.422,57.438,9.422
	c24.709,0,44.811,20.102,44.811,44.811c0,24.709-20.102,44.811-44.811,44.811c-1.155,0-2.323-0.045-3.471-0.132L53.643,103.15z"/>
</svg>
